<svg id="visual" viewBox="0 0 960 2700" width="960" height="2700" xmlns="http://www.w3.org/2000/svg"
	xmlns:xlink="http://www.w3.org/1999/xlink" version="1.1">
	<rect x="0" y="0" width="960" height="2700" fill="#001220"></rect>
	<path
		d="M0 775L26.7 746.3C53.3 717.7 106.7 660.3 160 594.5C213.3 528.7 266.7 454.3 320 537.2C373.3 620 426.7 860 480 921.7C533.3 983.3 586.7 866.7 640 707.3C693.3 548 746.7 346 800 243.5C853.3 141 906.7 138 933.3 136.5L960 135L960 2701L933.3 2701C906.7 2701 853.3 2701 800 2701C746.7 2701 693.3 2701 640 2701C586.7 2701 533.3 2701 480 2701C426.7 2701 373.3 2701 320 2701C266.7 2701 213.3 2701 160 2701C106.7 2701 53.3 2701 26.7 2701L0 2701Z"
		fill="#fa7268"></path>
	<path
		d="M0 991L26.7 1008.3C53.3 1025.7 106.7 1060.3 160 1032.5C213.3 1004.7 266.7 914.3 320 918.7C373.3 923 426.7 1022 480 1123.2C533.3 1224.3 586.7 1327.7 640 1279.3C693.3 1231 746.7 1031 800 1051.5C853.3 1072 906.7 1313 933.3 1433.5L960 1554L960 2701L933.3 2701C906.7 2701 853.3 2701 800 2701C746.7 2701 693.3 2701 640 2701C586.7 2701 533.3 2701 480 2701C426.7 2701 373.3 2701 320 2701C266.7 2701 213.3 2701 160 2701C106.7 2701 53.3 2701 26.7 2701L0 2701Z"
		fill="#eb5967"></path>
	<path
		d="M0 1376L26.7 1368.8C53.3 1361.7 106.7 1347.3 160 1457C213.3 1566.7 266.7 1800.3 320 1832.8C373.3 1865.3 426.7 1696.7 480 1581C533.3 1465.3 586.7 1402.7 640 1453.7C693.3 1504.7 746.7 1669.3 800 1655.8C853.3 1642.3 906.7 1450.7 933.3 1354.8L960 1259L960 2701L933.3 2701C906.7 2701 853.3 2701 800 2701C746.7 2701 693.3 2701 640 2701C586.7 2701 533.3 2701 480 2701C426.7 2701 373.3 2701 320 2701C266.7 2701 213.3 2701 160 2701C106.7 2701 53.3 2701 26.7 2701L0 2701Z"
		fill="#da3f67"></path>
	<path
		d="M0 2162L26.7 2171.5C53.3 2181 106.7 2200 160 2168.5C213.3 2137 266.7 2055 320 2005C373.3 1955 426.7 1937 480 1926.7C533.3 1916.3 586.7 1913.7 640 1911.8C693.3 1910 746.7 1909 800 1930C853.3 1951 906.7 1994 933.3 2015.5L960 2037L960 2701L933.3 2701C906.7 2701 853.3 2701 800 2701C746.7 2701 693.3 2701 640 2701C586.7 2701 533.3 2701 480 2701C426.7 2701 373.3 2701 320 2701C266.7 2701 213.3 2701 160 2701C106.7 2701 53.3 2701 26.7 2701L0 2701Z"
		fill="#c62368"></path>
</svg>