<svg id="visual" viewBox="0 0 960 2700" width="960" height="2700" xmlns="http://www.w3.org/2000/svg"
	xmlns:xlink="http://www.w3.org/1999/xlink" version="1.1">
	<rect x="0" y="0" width="960" height="2700" fill="#001220"></rect>
	<path
		d="M0 590L26.7 528.5C53.3 467 106.7 344 160 300C213.3 256 266.7 291 320 328.3C373.3 365.7 426.7 405.3 480 448.8C533.3 492.3 586.7 539.7 640 587.2C693.3 634.7 746.7 682.3 800 705.7C853.3 729 906.7 728 933.3 727.5L960 727L960 2701L933.3 2701C906.7 2701 853.3 2701 800 2701C746.7 2701 693.3 2701 640 2701C586.7 2701 533.3 2701 480 2701C426.7 2701 373.3 2701 320 2701C266.7 2701 213.3 2701 160 2701C106.7 2701 53.3 2701 26.7 2701L0 2701Z"
		fill="#fa7268"></path>
	<path
		d="M0 1178L26.7 1128.3C53.3 1078.7 106.7 979.3 160 912.3C213.3 845.3 266.7 810.7 320 839.3C373.3 868 426.7 960 480 1037C533.3 1114 586.7 1176 640 1209.2C693.3 1242.3 746.7 1246.7 800 1181C853.3 1115.3 906.7 979.7 933.3 911.8L960 844L960 2701L933.3 2701C906.7 2701 853.3 2701 800 2701C746.7 2701 693.3 2701 640 2701C586.7 2701 533.3 2701 480 2701C426.7 2701 373.3 2701 320 2701C266.7 2701 213.3 2701 160 2701C106.7 2701 53.3 2701 26.7 2701L0 2701Z"
		fill="#eb5967"></path>
	<path
		d="M0 1465L26.7 1441C53.3 1417 106.7 1369 160 1415.3C213.3 1461.7 266.7 1602.3 320 1633.3C373.3 1664.3 426.7 1585.7 480 1579.2C533.3 1572.7 586.7 1638.3 640 1671C693.3 1703.7 746.7 1703.3 800 1738.2C853.3 1773 906.7 1843 933.3 1878L960 1913L960 2701L933.3 2701C906.7 2701 853.3 2701 800 2701C746.7 2701 693.3 2701 640 2701C586.7 2701 533.3 2701 480 2701C426.7 2701 373.3 2701 320 2701C266.7 2701 213.3 2701 160 2701C106.7 2701 53.3 2701 26.7 2701L0 2701Z"
		fill="#da3f67"></path>
	<path
		d="M0 1854L26.7 1902.5C53.3 1951 106.7 2048 160 2058C213.3 2068 266.7 1991 320 1947.2C373.3 1903.3 426.7 1892.7 480 1944.8C533.3 1997 586.7 2112 640 2159.3C693.3 2206.7 746.7 2186.3 800 2190.8C853.3 2195.3 906.7 2224.7 933.3 2239.3L960 2254L960 2701L933.3 2701C906.7 2701 853.3 2701 800 2701C746.7 2701 693.3 2701 640 2701C586.7 2701 533.3 2701 480 2701C426.7 2701 373.3 2701 320 2701C266.7 2701 213.3 2701 160 2701C106.7 2701 53.3 2701 26.7 2701L0 2701Z"
		fill="#c62368"></path>
</svg>